<?xml version="1.0" encoding="UTF-8" standalone="no"?>
<!DOCTYPE svg PUBLIC "-//W3C//DTD SVG 1.1//EN"
 "http://www.w3.org/Graphics/SVG/1.1/DTD/svg11.dtd">
<!-- Generated by graphviz version 2.47.2 (20210527.0053)
 -->
<!-- Title: others/iterative_tree_traversals.cpp Pages: 1 -->
<svg width="321pt" height="95pt"
 viewBox="0.00 0.00 321.00 95.00" xmlns="http://www.w3.org/2000/svg" xmlns:xlink="http://www.w3.org/1999/xlink">
<g id="graph0" class="graph" transform="scale(1 1) rotate(0) translate(4 91)">
<title>others/iterative_tree_traversals.cpp</title>
<polygon fill="white" stroke="transparent" points="-4,4 -4,-91 317,-91 317,4 -4,4"/>
<!-- Node1 -->
<g id="node1" class="node">
<title>Node1</title>
<g id="a_node1"><a xlink:title="Iterative version of Preorder, Postorder and preorder traversal of tree, (https://en....">
<polygon fill="#bfbfbf" stroke="black" points="104.5,-56.5 104.5,-86.5 207.5,-86.5 207.5,-56.5 104.5,-56.5"/>
<text text-anchor="start" x="112.5" y="-74.5" font-family="Helvetica,sans-Serif" font-size="10.00">others/iterative_tree</text>
<text text-anchor="middle" x="156" y="-63.5" font-family="Helvetica,sans-Serif" font-size="10.00">_traversals.cpp</text>
</a>
</g>
</g>
<!-- Node2 -->
<g id="node2" class="node">
<title>Node2</title>
<g id="a_node2"><a xlink:title=" ">
<polygon fill="white" stroke="#bfbfbf" points="0,-0.5 0,-19.5 54,-19.5 54,-0.5 0,-0.5"/>
<text text-anchor="middle" x="27" y="-7.5" font-family="Helvetica,sans-Serif" font-size="10.00">iostream</text>
</a>
</g>
</g>
<!-- Node1&#45;&gt;Node2 -->
<g id="edge1" class="edge">
<title>Node1&#45;&gt;Node2</title>
<path fill="none" stroke="midnightblue" d="M125.43,-56.4C104.07,-46.55 75.78,-33.5 55.02,-23.92"/>
<polygon fill="midnightblue" stroke="midnightblue" points="56.32,-20.67 45.77,-19.66 53.39,-27.02 56.32,-20.67"/>
</g>
<!-- Node3 -->
<g id="node3" class="node">
<title>Node3</title>
<g id="a_node3"><a xlink:title=" ">
<polygon fill="white" stroke="#bfbfbf" points="72.5,-0.5 72.5,-19.5 117.5,-19.5 117.5,-0.5 72.5,-0.5"/>
<text text-anchor="middle" x="95" y="-7.5" font-family="Helvetica,sans-Serif" font-size="10.00">cstdlib</text>
</a>
</g>
</g>
<!-- Node1&#45;&gt;Node3 -->
<g id="edge2" class="edge">
<title>Node1&#45;&gt;Node3</title>
<path fill="none" stroke="midnightblue" d="M141.54,-56.4C132.41,-47.49 120.58,-35.95 111.14,-26.74"/>
<polygon fill="midnightblue" stroke="midnightblue" points="113.48,-24.13 103.88,-19.66 108.59,-29.15 113.48,-24.13"/>
</g>
<!-- Node4 -->
<g id="node4" class="node">
<title>Node4</title>
<g id="a_node4"><a xlink:title=" ">
<polygon fill="white" stroke="#bfbfbf" points="135.5,-0.5 135.5,-19.5 176.5,-19.5 176.5,-0.5 135.5,-0.5"/>
<text text-anchor="middle" x="156" y="-7.5" font-family="Helvetica,sans-Serif" font-size="10.00">stack</text>
</a>
</g>
</g>
<!-- Node1&#45;&gt;Node4 -->
<g id="edge3" class="edge">
<title>Node1&#45;&gt;Node4</title>
<path fill="none" stroke="midnightblue" d="M156,-56.4C156,-48.47 156,-38.46 156,-29.86"/>
<polygon fill="midnightblue" stroke="midnightblue" points="159.5,-29.66 156,-19.66 152.5,-29.66 159.5,-29.66"/>
</g>
<!-- Node5 -->
<g id="node5" class="node">
<title>Node5</title>
<g id="a_node5"><a xlink:title=" ">
<polygon fill="white" stroke="#bfbfbf" points="195,-0.5 195,-19.5 239,-19.5 239,-0.5 195,-0.5"/>
<text text-anchor="middle" x="217" y="-7.5" font-family="Helvetica,sans-Serif" font-size="10.00">vector</text>
</a>
</g>
</g>
<!-- Node1&#45;&gt;Node5 -->
<g id="edge4" class="edge">
<title>Node1&#45;&gt;Node5</title>
<path fill="none" stroke="midnightblue" d="M170.46,-56.4C179.59,-47.49 191.42,-35.95 200.86,-26.74"/>
<polygon fill="midnightblue" stroke="midnightblue" points="203.41,-29.15 208.12,-19.66 198.52,-24.13 203.41,-29.15"/>
</g>
<!-- Node6 -->
<g id="node6" class="node">
<title>Node6</title>
<g id="a_node6"><a xlink:title=" ">
<polygon fill="white" stroke="#bfbfbf" points="257,-0.5 257,-19.5 313,-19.5 313,-0.5 257,-0.5"/>
<text text-anchor="middle" x="285" y="-7.5" font-family="Helvetica,sans-Serif" font-size="10.00">algorithm</text>
</a>
</g>
</g>
<!-- Node1&#45;&gt;Node6 -->
<g id="edge5" class="edge">
<title>Node1&#45;&gt;Node6</title>
<path fill="none" stroke="midnightblue" d="M186.57,-56.4C207.93,-46.55 236.22,-33.5 256.98,-23.92"/>
<polygon fill="midnightblue" stroke="midnightblue" points="258.61,-27.02 266.23,-19.66 255.68,-20.67 258.61,-27.02"/>
</g>
</g>
</svg>
